# xmcd
#
# Track frame offsets: 
#        150
#        16570
#        34138
#        52120
#        69000
#        87305
#        106161
#        122518
#        138141
#        153023
#        170788
#        184351
#        238222
#        249559
#        267516
#
# Disc length: 3760 seconds
#
# Revision: 0
# Processed by: cddbd v1.5.2PL0 Copyright (c) Steve Scherf et al.
# Submitted via: ExactAudioCopy v1.0b3
#
DISCID=c30eae0f
DTITLE=Demis Roussos - Forever And Ever
DYEAR=1973
DGENRE=Pop
TTITLE0=Forever And Ever
TTITLE1=My Friend The Wind
TTITLE2=My Reason
TTITLE3=Lay It Down
TTITLE4=Lovely Sunny Day
TTITLE5=Lost In A Dream
TTITLE6=Velvet Mornings
TTITLE7=Rebecca
TTITLE8=When I Am A Kid
TTITLE9=Goodbye My Love, Goodbye
TTITLE10=Velvet Mornings (First Version)
TTITLE11=Ulysses
TTITLE12=Le Peintre Des Etoiles
TTITLE13=Mara
TTITLE14=Happy To Sing A Song (Live)
EXTD=
EXTT0=
EXTT1=
EXTT2=
EXTT3=
EXTT4=
EXTT5=
EXTT6=
EXTT7=
EXTT8=
EXTT9=
EXTT10=
EXTT11=
EXTT12=
EXTT13=
EXTT14=
PLAYORDER=
